<?xml version="1.0" encoding="UTF-8" standalone="no"?><!DOCTYPE svg PUBLIC "-//W3C//DTD SVG 1.1//EN" "http://www.w3.org/Graphics/SVG/1.1/DTD/svg11.dtd"><svg width="100%" height="100%" viewBox="0 0 256 256" version="1.1" xmlns="http://www.w3.org/2000/svg" xmlns:xlink="http://www.w3.org/1999/xlink" xml:space="preserve" xmlns:serif="http://www.serif.com/" style="fill-rule:evenodd;clip-rule:evenodd;stroke-linejoin:round;stroke-miterlimit:2;"><rect id="icon" x="0" y="0" width="256" height="256" style="fill:none;"/><g id="icon1" serif:id="icon"><path id="_-Curves-" serif:id="(Curves)" d="M104.893,162.999l-88.893,86.001l0.724,-240l87.276,85l0.893,68.999Zm46.107,0l88.893,86.001l-0.724,-240l-87.276,85l-0.893,68.999Z" style="fill:none;"/><clipPath id="_clip1"><path id="_-Curves-1" serif:id="(Curves)" d="M104.893,162.999l-88.893,86.001l0.724,-240l87.276,85l0.893,68.999Zm46.107,0l88.893,86.001l-0.724,-240l-87.276,85l-0.893,68.999Z"/></clipPath><g clip-path="url(#_clip1)"><path d="M128,63.533c35.58,0 64.467,28.887 64.467,64.467c-0,35.58 -28.887,64.467 -64.467,64.467c-35.58,-0 -64.467,-28.887 -64.467,-64.467c0,-35.58 28.887,-64.467 64.467,-64.467Zm0,22.526c23.148,-0 41.941,18.793 41.941,41.941c0,23.148 -18.793,41.941 -41.941,41.941c-23.148,0 -41.941,-18.793 -41.941,-41.941c-0,-23.148 18.793,-41.941 41.941,-41.941Z" style="fill:#e06e8f;"/><path d="M128,20.724c59.207,0 107.276,48.069 107.276,107.276c-0,59.207 -48.069,107.276 -107.276,107.276c-59.207,-0 -107.276,-48.069 -107.276,-107.276c0,-59.207 48.069,-107.276 107.276,-107.276Zm0,22.514c46.781,0 84.762,37.981 84.762,84.762c-0,46.781 -37.981,84.762 -84.762,84.762c-46.781,-0 -84.762,-37.981 -84.762,-84.762c0,-46.781 37.981,-84.762 84.762,-84.762Z" style="fill:#dda0b2;"/></g><path d="M121.85,104.151l12.193,-0l0,15.995l15.212,-4.943l3.768,11.596l-15.212,4.943l9.402,12.94l-9.865,7.167l-9.401,-12.94l-9.402,12.94l-9.865,-7.167l9.402,-12.94l-15.212,-4.943l3.768,-11.596l15.212,4.943l0,-15.995Z" style="fill:#ef326b;"/></g></svg>