<?xml version="1.0" encoding="UTF-8" standalone="no"?><!DOCTYPE svg PUBLIC "-//W3C//DTD SVG 1.1//EN" "http://www.w3.org/Graphics/SVG/1.1/DTD/svg11.dtd"><svg width="100%" height="100%" viewBox="0 0 16 16" version="1.1" xmlns="http://www.w3.org/2000/svg" xmlns:xlink="http://www.w3.org/1999/xlink" xml:space="preserve" xmlns:serif="http://www.serif.com/" style="fill-rule:evenodd;clip-rule:evenodd;stroke-linejoin:round;stroke-miterlimit:2;"><rect id="favicon" x="0" y="0" width="16" height="16" style="fill:none;"/><path d="M3.392,1.403l1.459,0l-0,1.882l1.82,-0.582l0.45,1.364l-1.819,0.581l1.124,1.522l-1.18,0.843l-1.125,-1.522l-1.124,1.522l-1.18,-0.843l1.124,-1.522l-1.82,-0.581l0.451,-1.364l1.82,0.582l0,-1.882Z" style="fill:#ef326b;"/><path d="M3.392,8.987l1.459,-0l-0,1.881l1.82,-0.581l0.45,1.364l-1.819,0.581l1.124,1.522l-1.18,0.843l-1.125,-1.522l-1.124,1.522l-1.18,-0.843l1.124,-1.522l-1.82,-0.581l0.451,-1.364l1.82,0.581l0,-1.881Z" style="fill:#ef326b;"/><path d="M11.149,1.403l1.459,0l-0,1.882l1.82,-0.582l0.451,1.364l-1.82,0.581l1.124,1.522l-1.18,0.843l-1.124,-1.522l-1.125,1.522l-1.18,-0.843l1.124,-1.522l-1.819,-0.581l0.45,-1.364l1.82,0.582l0,-1.882Z" style="fill:#ef326b;"/><path d="M11.149,8.987l1.459,-0l-0,1.881l1.82,-0.581l0.451,1.364l-1.82,0.581l1.124,1.522l-1.18,0.843l-1.124,-1.522l-1.125,1.522l-1.18,-0.843l1.124,-1.522l-1.819,-0.581l0.45,-1.364l1.82,0.581l0,-1.881Z" style="fill:#ef326b;"/></svg>